<svg xmlns="http://www.w3.org/2000/svg" width="284.5074768066406" height="432.751953125" viewBox="-47.790618896484375 -136.49771118164062 284.5074768066406 432.751953125"><title>Neo4j Graph Visualization</title><desc>Created using Neo4j (http://www.neo4j.com/)</desc><g class="layer relationships"><g class="relationship" transform="translate(-3.1728507649380298 -107.4977051213734) rotate(372.55339688863097)"><path class="outline" fill="#A5ABB6" stroke="none" d="M 24.018736134675446,-6.953439040707552 L 24.277555179777966,-5.987513214418485 A 109.24096439595195 109.24096439595195 0 0 1 39.91092337841536,-8.976041310977607 L 39.79521336100297,-9.969324348117794 A 110.24096439595195 110.24096439595195 0 0 0 24.018736134675446,-6.953439040707552 Z M 61.86745942596755,-10.31545333192338 L 61.78295125601279,-9.319030545546582 A 109.24096439595195 109.24096439595195 0 0 1 77.50233941417602,-6.822165040340539 L 76.81712552171379,-3.901466164801199 L 84.43150577251151,-5.710115770518563 L 78.41595793745898,-10.716430207726324 L 77.73074404499675,-7.7957313321869846 A 110.24096439595195 110.24096439595195 0 0 0 61.86745942596755,-10.31545333192338"/><text text-anchor="middle" pointer-events="none" font-size="8px" fill="#000000" x="50.830490697591586" y="-7.196317891717584" font-family="sans-serif">road</text></g><g class="relationship" transform="translate(102.99752690429584 -83.85646890219572) rotate(384.6268676845018)"><path class="outline" fill="#A5ABB6" stroke="none" d="M 21.40063509461097,-12.933012701892217 L 21.90063509461097,-12.06698729810778 A 67.93274715876332 67.93274715876332 0 0 1 31.406118179364096,-16.611546664830506 L 31.046043082776855,-17.544469986876692 A 68.93274715876332 68.93274715876332 0 0 0 21.40063509461097,-12.933012701892217 Z M 76.93735939328766,-18.869060629208732 L 76.63169406602648,-17.916921612200028 A 67.93274715876332 67.93274715876332 0 0 1 86.38347882128481,-13.928197179589187 L 85.03583112159853,-11.247927477202822 L 92.86204941013403,-11.23039749738561 L 88.18034242086651,-17.50189011610434 L 86.83269472118023,-14.821620413717977 A 68.93274715876332 68.93274715876332 0 0 0 76.93735939328766,-18.869060629208732"/><text text-anchor="middle" pointer-events="none" font-size="8px" fill="#000000" x="53.892612457173165" y="-18.639761465422723" font-family="sans-serif">twowheeler</text></g><g class="relationship" transform="translate(207.71687319016857 -35.852796836906506) rotate(488.9534125316511)"><path class="outline" fill="#A5ABB6" stroke="none" d="M 21.40063509461097,12.933012701892217 L 21.90063509461097,12.06698729810778 A 65.77319831487293 65.77319831487293 0 0 0 30.395614090873202,16.188968908703664 L 30.0247697228617,17.11766393653258 A 66.77319831487293 66.77319831487293 0 0 1 21.40063509461097,12.933012701892217 Z M 75.86742417255931,18.46411684857661 L 75.55172580176827,17.515257249542117 A 65.77319831487293 65.77319831487293 0 0 0 84.27398700320425,13.898966321124986 L 82.92905836175385,11.217331195048668 L 90.75529040429073,11.207738678753415 L 86.0672251918048,17.474479822560077 L 84.72229655035439,14.79284469648376 A 66.77319831487293 66.77319831487293 0 0 1 75.86742417255931,18.46411684857661"/><text text-anchor="middle" pointer-events="none" font-size="8px" fill="#000000" x="52.841551190124406" y="24.350357638925303" transform="rotate(180 52.841551190124406 21.350357638925303)" font-family="sans-serif">twowheeler</text></g><g class="relationship" transform="translate(136.61081407576717 52.10200555833071) rotate(426.73068667085363)"><path class="outline" fill="#A5ABB6" stroke="none" d="M 25 0.5 L 48.607108877305485 0.5 L 48.607108877305485 -0.5 L 25 -0.5 Z M 67.94304637730548 0.5 L 91.55015525461097 0.5 L 91.55015525461097 3.5 L 98.55015525461097 0 L 91.55015525461097 -3.5 L 91.55015525461097 -0.5 L 67.94304637730548 -0.5 Z"/><text text-anchor="middle" pointer-events="none" font-size="8px" fill="#000000" x="58.275077627305485" y="3" font-family="sans-serif">trek</text></g><g class="relationship" transform="translate(207.71687319016857 -35.852796836906506) rotate(488.9534125316511)"><path class="outline" fill="#A5ABB6" stroke="none" d="M 25 0.5 L 42.04526551913003 0.5 L 42.04526551913003 -0.5 L 25 -0.5 Z M 64.05698426913003 0.5 L 81.10224978826005 0.5 L 81.10224978826005 3.5 L 88.10224978826005 0 L 81.10224978826005 -3.5 L 81.10224978826005 -0.5 L 64.05698426913003 -0.5 Z"/><text text-anchor="middle" pointer-events="none" font-size="8px" fill="#000000" x="53.05112489413003" y="3" transform="rotate(180 53.05112489413003 0)" font-family="sans-serif">road</text></g><g class="relationship" transform="translate(207.71687319016857 -35.852796836906506) rotate(488.9534125316511)"><path class="outline" fill="#A5ABB6" stroke="none" d="M 21.40063509461097,-12.933012701892217 L 21.90063509461097,-12.06698729810778 A 65.77319831487293 65.77319831487293 0 0 1 43.31982981633686,-19.871552936493856 L 43.145482137806574,-20.856237092450016 A 66.77319831487293 66.77319831487293 0 0 0 21.40063509461097,-12.933012701892217 Z M 62.549906507962014,-21.42616795734797 L 62.43365219557594,-20.43294847764993 A 65.77319831487293 65.77319831487293 0 0 1 84.27398700320425,-13.898966321124986 L 82.92905836175385,-11.217331195048668 L 90.75529040429073,-11.207738678753415 L 86.0672251918048,-17.474479822560077 L 84.72229655035439,-14.79284469648376 A 66.77319831487293 66.77319831487293 0 0 0 62.549906507962014,-21.42616795734797"/><text text-anchor="middle" pointer-events="none" font-size="8px" fill="#000000" x="52.84155119012441" y="-18.350357638925303" transform="rotate(180 52.84155119012441 -21.350357638925303)" font-family="sans-serif">trek</text></g><g class="relationship" transform="translate(102.99752690429584 -83.85646890219572) rotate(384.6268676845018)"><path class="outline" fill="#A5ABB6" stroke="none" d="M 25 0.5 L 43.09295575667687 0.5 L 43.09295575667687 -0.5 L 25 -0.5 Z M 65.10467450667687 0.5 L 83.19763026335374 0.5 L 83.19763026335374 3.5 L 90.19763026335374 0 L 83.19763026335374 -3.5 L 83.19763026335374 -0.5 L 65.10467450667687 -0.5 Z"/><text text-anchor="middle" pointer-events="none" font-size="8px" fill="#000000" x="54.09881513167687" y="3" font-family="sans-serif">road</text></g><g class="relationship" transform="translate(102.99752690429584 -83.85646890219572) rotate(384.6268676845018)"><path class="outline" fill="#A5ABB6" stroke="none" d="M 21.40063509461097,12.933012701892217 L 21.90063509461097,12.06698729810778 A 67.93274715876332 67.93274715876332 0 0 0 44.365111162590054,20.187459091870437 L 44.195798158295936,21.173021422003288 A 68.93274715876332 68.93274715876332 0 0 1 21.40063509461097,12.933012701892217 Z M 63.60020438904675,21.73310330632647 L 63.488019744827604,20.73941592812274 A 67.93274715876332 67.93274715876332 0 0 0 86.38347882128481,13.928197179589187 L 85.03583112159853,11.247927477202822 L 92.86204941013403,11.23039749738561 L 88.18034242086651,17.50189011610434 L 86.83269472118023,14.821620413717977 A 68.93274715876332 68.93274715876332 0 0 1 63.60020438904675,21.73310330632647"/><text text-anchor="middle" pointer-events="none" font-size="8px" fill="#000000" x="53.89261245717315" y="24.639761465422723" font-family="sans-serif">trek</text></g><g class="relationship" transform="translate(-3.1728507649380298 -107.4977051213734) rotate(372.55339688863097)"><path class="outline" fill="#A5ABB6" stroke="none" d="M 24.018736134675446,6.953439040707552 L 24.277555179777966,5.987513214418485 A 109.24096439595195 109.24096439595195 0 0 0 41.23467928619429,9.122075950013638 L 41.13108702987179,10.116695799217354 A 110.24096439595195 110.24096439595195 0 0 1 24.018736134675446,6.953439040707552 Z M 60.52762169977433,10.420865244179268 L 60.455267249024885,9.423486262318931 A 109.24096439595195 109.24096439595195 0 0 0 77.50233941417602,6.822165040340539 L 76.81712552171379,3.901466164801199 L 84.43150577251151,5.710115770518563 L 78.41595793745898,10.716430207726324 L 77.73074404499675,7.7957313321869846 A 110.24096439595195 110.24096439595195 0 0 1 60.52762169977433,10.420865244179268"/><text text-anchor="middle" pointer-events="none" font-size="8px" fill="#000000" x="50.83049069759161" y="13.196317891717584" font-family="sans-serif">trek</text></g><g class="relationship" transform="translate(-3.1728507649380298 -107.4977051213734) rotate(438.0456393131412)"><path class="outline" fill="#A5ABB6" stroke="none" d="M 21.40063509461097,12.933012701892217 L 21.90063509461097,12.06698729810778 A 56.87672044828762 56.87672044828762 0 0 0 39.03115614036757,18.55161664607246 L 38.832343004004194,19.531654062097665 A 57.87672044828762 57.87672044828762 0 0 1 21.40063509461097,12.933012701892217 Z M 58.234895514418234,20.145889447645864 L 58.09846932899333,19.155239208696514 A 56.87672044828762 56.87672044828762 0 0 0 75.60485115988064,13.76712597020826 L 74.27218698856484,11.0793748272467 L 82.09838118867691,11.10553476096499 L 77.38173672163504,17.350794160823675 L 76.04907255031924,14.663043017862114 A 57.87672044828762 57.87672044828762 0 0 1 58.234895514418234,20.145889447645864"/><text text-anchor="middle" pointer-events="none" font-size="8px" fill="#000000" x="48.52350402308705" y="23.158293235841406" font-family="sans-serif">trek</text></g><g class="relationship" transform="translate(18.471728044824317 -5.267619216057398) rotate(466.7862472324654)"><path class="outline" fill="#A5ABB6" stroke="none" d="M 24.018736134675446,-6.953439040707552 L 24.277555179777966,-5.987513214418485 A 149.47952538264968 149.47952538264968 0 0 1 37.93488280215638,-8.970258285099078 L 37.76742963199504,-9.956138316240242 A 150.47952538264968 150.47952538264968 0 0 0 24.018736134675446,-6.953439040707552 Z M 84.19682629421732,-10.57562850334125 L 84.05573651447129,-9.58563169827005 A 149.47952538264968 149.47952538264968 0 0 1 97.78778344162727,-6.968332874666714 L 97.08891688814859,-4.050870700031226 L 104.71167294135653,-5.823887945655701 L 98.71960551293219,-10.858282440847365 L 98.02073895945351,-7.940820266211876 A 150.47952538264968 150.47952538264968 0 0 0 84.19682629421732,-10.57562850334125"/><text text-anchor="middle" pointer-events="none" font-size="8px" fill="#000000" x="60.96476022670716" y="-8.567556203299063" transform="rotate(180 60.96476022670716 -11.567556203299063)" font-family="sans-serif">twowheeler</text></g><g class="relationship" transform="translate(-18.790620398201554 118.25838311558975) rotate(392.25106109552144)"><path class="outline" fill="#A5ABB6" stroke="none" d="M 24.018736134675446,-6.953439040707552 L 24.277555179777966,-5.987513214418485 A 113.80860219757423 113.80860219757423 0 0 1 29.050409704729034,-7.156568189283462 L 28.83352821472156,-8.13276612991443 A 114.80860219757423 114.80860219757423 0 0 0 24.018736134675446,-6.953439040707552 Z M 75.17550739829592,-8.84536709346213 L 74.98874335742389,-7.8629622924573965 A 113.80860219757423 113.80860219757423 0 0 1 79.79528594564788,-6.841209779276544 L 79.10829313884588,-3.9209288196080543 L 86.72377365267468,-5.724940056683302 L 80.7112763547172,-10.734917725501196 L 80.0242835479152,-7.814636765832707 A 114.80860219757423 114.80860219757423 0 0 0 75.17550739829592,-8.84536709346213"/><text text-anchor="middle" pointer-events="none" font-size="8px" fill="#000000" x="51.97587245875453" y="-7.351935422197471" font-family="sans-serif">twowheeler</text></g><g class="relationship" transform="translate(75.13434736366469 177.52305633088068) rotate(353.83087503787533)"><path class="outline" fill="#A5ABB6" stroke="none" d="M 24.018736134675446,6.953439040707552 L 24.277555179777966,5.987513214418485 A 113.54598812452124 113.54598812452124 0 0 0 28.985617072302006,7.1419087842734115 L 28.768261948296907,8.11800137725254 A 114.54598812452124 114.54598812452124 0 0 1 24.018736134675446,6.953439040707552 Z M 75.10921850638991,8.831383878686935 L 74.9220116084784,7.849063372246022 A 113.54598812452124 113.54598812452124 0 0 0 79.6633761791744,6.8401342749918985 L 78.97648383166297,3.9198296842119844 L 86.59190228224611,5.724102895928553 L 80.57923264252297,10.733873729365117 L 79.89234029501154,7.813569138585203 A 114.54598812452124 114.54598812452124 0 0 1 75.10921850638991,8.831383878686935"/><text text-anchor="middle" pointer-events="none" font-size="8px" fill="#000000" x="51.909979293713" y="13.342987929939056" font-family="sans-serif">twowheeler</text></g><g class="relationship" transform="translate(75.13434736366469 177.52305633088068) rotate(353.83087503787533)"><path class="outline" fill="#A5ABB6" stroke="none" d="M 24.018736134675446,-6.953439040707552 L 24.277555179777966,-5.987513214418485 A 113.54598812452124 113.54598812452124 0 0 1 42.31103292062363,-9.287363871123603 L 42.2110347906297,-10.282351496171131 A 114.54598812452124 114.54598812452124 0 0 0 24.018736134675446,-6.953439040707552 Z M 61.606194397992795,-10.580924691549058 L 61.53687049475865,-9.583330487255367 A 113.54598812452124 113.54598812452124 0 0 1 79.6633761791744,-6.8401342749918985 L 78.97648383166297,-3.9198296842119844 L 86.59190228224611,-5.724102895928553 L 80.57923264252297,-10.733873729365117 L 79.89234029501154,-7.813569138585203 A 114.54598812452124 114.54598812452124 0 0 0 61.606194397992795,-10.580924691549058"/><text text-anchor="middle" pointer-events="none" font-size="8px" fill="#000000" x="51.90997929371298" y="-7.342987929939056" font-family="sans-serif">trek</text></g><g class="relationship" transform="translate(-18.790620398201554 118.25838311558975) rotate(392.25106109552144)"><path class="outline" fill="#A5ABB6" stroke="none" d="M 24.018736134675446,6.953439040707552 L 24.277555179777966,5.987513214418485 A 113.80860219757423 113.80860219757423 0 0 0 42.3767434883608,9.29740558131138 L 42.27695625596047,10.292414379388006 A 114.80860219757423 114.80860219757423 0 0 1 24.018736134675446,6.953439040707552 Z M 61.67203316087077,10.590652623287156 L 61.602886388905006,9.593046125750831 A 113.80860219757423 113.80860219757423 0 0 0 79.79528594564788,6.841209779276544 L 79.10829313884588,3.9209288196080543 L 86.72377365267468,5.724940056683302 L 80.7112763547172,10.734917725501196 L 80.0242835479152,7.814636765832707 A 114.80860219757423 114.80860219757423 0 0 1 61.67203316087077,10.590652623287156"/><text text-anchor="middle" pointer-events="none" font-size="8px" fill="#000000" x="51.97587245875456" y="13.35193542219747" font-family="sans-serif">trek</text></g><g class="relationship" transform="translate(18.471728044824317 -5.267619216057398) rotate(466.7862472324654)"><path class="outline" fill="#A5ABB6" stroke="none" d="M 24.018736134675446,6.953439040707552 L 24.277555179777966,5.987513214418485 A 149.47952538264968 149.47952538264968 0 0 0 51.34736406761749,10.62870115224652 L 51.269638779794064,11.625675966187544 A 150.47952538264968 150.47952538264968 0 0 1 24.018736134675446,6.953439040707552 Z M 70.65487966110439,11.884326031962217 L 70.603781836069,10.885632379095284 A 149.47952538264968 149.47952538264968 0 0 0 97.78778344162727,6.968332874666714 L 97.08891688814859,4.050870700031226 L 104.71167294135653,5.823887945655701 L 98.71960551293219,10.858282440847365 L 98.02073895945351,7.940820266211876 A 150.47952538264968 150.47952538264968 0 0 1 70.65487966110439,11.884326031962217"/><text text-anchor="middle" pointer-events="none" font-size="8px" fill="#000000" x="60.9647602267072" y="14.567556203299063" transform="rotate(180 60.9647602267072 11.567556203299063)" font-family="sans-serif">trek</text></g><g class="relationship" transform="translate(18.471728044824317 -5.267619216057398) rotate(385.90171373610474)"><path class="outline" fill="#A5ABB6" stroke="none" d="M 25 0.5 L 52.49807554798669 0.5 L 52.49807554798669 -0.5 L 25 -0.5 Z M 71.83401304798669 0.5 L 99.33208859597337 0.5 L 99.33208859597337 3.5 L 106.33208859597337 0 L 99.33208859597337 -3.5 L 99.33208859597337 -0.5 L 71.83401304798669 -0.5 Z"/><text text-anchor="middle" pointer-events="none" font-size="8px" fill="#000000" x="62.16604429798669" y="3" font-family="sans-serif">trek</text></g><g class="relationship" transform="translate(-3.1728507649380298 -107.4977051213734) rotate(438.0456393131412)"><path class="outline" fill="#A5ABB6" stroke="none" d="M 25 0.5 L 37.74229431501163 0.5 L 37.74229431501163 -0.5 L 25 -0.5 Z M 59.75401306501163 0.5 L 72.49630738002325 0.5 L 72.49630738002325 3.5 L 79.49630738002325 0 L 72.49630738002325 -3.5 L 72.49630738002325 -0.5 L 59.75401306501163 -0.5 Z"/><text text-anchor="middle" pointer-events="none" font-size="8px" fill="#000000" x="48.74815369001163" y="3" font-family="sans-serif">road</text></g><g class="relationship" transform="translate(-3.1728507649380298 -107.4977051213734) rotate(438.0456393131412)"><path class="outline" fill="#A5ABB6" stroke="none" d="M 21.40063509461097,-12.933012701892217 L 21.90063509461097,-12.06698729810778 A 56.87672044828762 56.87672044828762 0 0 1 22.12058730624604,-12.193323658890137 L 21.624454480898542,-13.061570294134242 A 57.87672044828762 57.87672044828762 0 0 0 21.40063509461097,-12.933012701892217 Z M 75.81756987345504,-14.777186273492568 L 75.37734841036324,-13.879297046787336 A 56.87672044828762 56.87672044828762 0 0 1 75.60485115988064,-13.76712597020826 L 74.27218698856484,-11.0793748272467 L 82.09838118867691,-11.10553476096499 L 77.38173672163504,-17.350794160823675 L 76.04907255031924,-14.663043017862114 A 57.87672044828762 57.87672044828762 0 0 0 75.81756987345504,-14.777186273492568"/><text text-anchor="middle" pointer-events="none" font-size="8px" fill="#000000" x="48.523504023087035" y="-17.158293235841406" font-family="sans-serif">PublicTrans…</text></g><g class="relationship" transform="translate(18.471728044824317 -5.267619216057398) rotate(317.08449725914613)"><path class="outline" fill="#A5ABB6" stroke="none" d="M 25 0.5 L 44.5399552462379 0.5 L 44.5399552462379 -0.5 L 25 -0.5 Z M 63.8758927462379 0.5 L 83.4158479924758 0.5 L 83.4158479924758 3.5 L 90.4158479924758 0 L 83.4158479924758 -3.5 L 83.4158479924758 -0.5 L 63.8758927462379 -0.5 Z"/><text text-anchor="middle" pointer-events="none" font-size="8px" fill="#000000" x="54.2079239962379" y="3" font-family="sans-serif">trek</text></g><g class="relationship" transform="translate(-18.790620398201554 118.25838311558975) rotate(442.5656564046237)"><path class="outline" fill="#A5ABB6" stroke="none" d="M 24.018736134675446,-6.953439040707552 L 24.277555179777966,-5.987513214418485 A 139.01258331720842 139.01258331720842 0 0 1 35.3135205723137,-8.46816098913905 L 35.13408977487329,-9.451931586854755 A 140.01258331720842 140.01258331720842 0 0 0 24.018736134675446,-6.953439040707552 Z M 81.54576454688133,-10.096268685259332 L 81.39371317555938,-9.107896093328975 A 139.01258331720842 139.01258331720842 0 0 1 92.49429004573913,-6.934571755660294 L 91.79857682269217,-4.016356014616188 L 99.41941231201655,-5.797610192058057 L 93.42190767646842,-10.825526077052437 L 92.72619445342146,-7.90731033600833 A 140.01258331720842 140.01258331720842 0 0 0 81.54576454688133,-10.096268685259332"/><text text-anchor="middle" pointer-events="none" font-size="8px" fill="#000000" x="58.31998121015924" y="-8.210809243816982" font-family="sans-serif">twowheeler</text></g><g class="relationship" transform="translate(-2.7801777732962907 240.95609249540522) rotate(320.84971699080035)"><path class="outline" fill="#A5ABB6" stroke="none" d="M 21.40063509461097,12.933012701892217 L 21.90063509461097,12.06698729810778 A 52.698442181562505 52.698442181562505 0 0 0 24.40440019262897,13.423691360782641 L 23.95191137122115,14.31546143569038 A 53.698442181562505 53.698442181562505 0 0 1 21.40063509461097,12.933012701892217 Z M 69.35229783507903,15.807028147610971 L 68.95931731660633,14.887481350487022 A 52.698442181562505 52.698442181562505 0 0 0 71.54673245856964,13.69804095144614 L 70.22049536452543,11.007112641293457 L 78.04660469793326,11.051975783701764 L 73.31504858396191,17.28594536498305 L 71.98881148991771,14.595017054830366 A 53.698442181562505 53.698442181562505 0 0 1 69.35229783507903,15.807028147610971"/><text text-anchor="middle" pointer-events="none" font-size="8px" fill="#000000" x="46.50303764001636" y="22.598552899412518" font-family="sans-serif">twowheeler</text></g><g class="relationship" transform="translate(-2.7801777732962907 240.95609249540522) rotate(320.84971699080035)"><path class="outline" fill="#A5ABB6" stroke="none" d="M 25 0.5 L 35.72964426626949 0.5 L 35.72964426626949 -0.5 L 25 -0.5 Z M 57.74136301626949 0.5 L 68.47100728253898 0.5 L 68.47100728253898 3.5 L 75.47100728253898 0 L 68.47100728253898 -3.5 L 68.47100728253898 -0.5 L 57.74136301626949 -0.5 Z"/><text text-anchor="middle" pointer-events="none" font-size="8px" fill="#000000" x="46.73550364126949" y="3" font-family="sans-serif">road</text></g><g class="relationship" transform="translate(-2.7801777732962907 240.95609249540522) rotate(320.84971699080035)"><path class="outline" fill="#A5ABB6" stroke="none" d="M 21.40063509461097,-12.933012701892217 L 21.90063509461097,-12.06698729810778 A 52.698442181562505 52.698442181562505 0 0 1 37.028617113474695,-17.918695687311462 L 36.81568408154072,-18.89576248334508 A 53.698442181562505 53.698442181562505 0 0 0 21.40063509461097,-12.933012701892217 Z M 56.21563008362031,-19.533120795102946 L 56.06728734638979,-18.54418478488239 A 52.698442181562505 52.698442181562505 0 0 1 71.54673245856964,-13.69804095144614 L 70.22049536452543,-11.007112641293457 L 78.04660469793326,-11.051975783701764 L 73.31504858396191,-17.28594536498305 L 71.98881148991771,-14.595017054830366 A 53.698442181562505 53.698442181562505 0 0 0 56.21563008362031,-19.533120795102946"/><text text-anchor="middle" pointer-events="none" font-size="8px" fill="#000000" x="46.50303764001636" y="-16.598552899412518" font-family="sans-serif">trek</text></g><g class="relationship" transform="translate(-18.790620398201554 118.25838311558975) rotate(442.5656564046237)"><path class="outline" fill="#A5ABB6" stroke="none" d="M 24.018736134675446,6.953439040707552 L 24.277555179777966,5.987513214418485 A 139.01258331720842 139.01258331720842 0 0 0 48.70686998411039,10.24361706807943 L 48.623785496422634,11.24015957490272 A 140.01258331720842 140.01258331720842 0 0 1 24.018736134675446,6.953439040707552 Z M 68.01162516608272,11.509322547763503 L 67.95623753069182,10.51085762106564 A 139.01258331720842 139.01258331720842 0 0 0 92.49429004573913,6.934571755660294 L 91.79857682269217,4.016356014616188 L 99.41941231201655,5.797610192058057 L 93.42190767646842,10.825526077052437 L 92.72619445342146,7.90731033600833 A 140.01258331720842 140.01258331720842 0 0 1 68.01162516608272,11.509322547763503"/><text text-anchor="middle" pointer-events="none" font-size="8px" fill="#000000" x="58.3199812101593" y="14.210809243816982" font-family="sans-serif">trek</text></g><g class="relationship" transform="translate(-2.7801777732962907 240.95609249540522) rotate(372.1418876139968)"><path class="outline" fill="#A5ABB6" stroke="none" d="M 25 0.5 L 49.34743393589547 0.5 L 49.34743393589547 -0.5 L 25 -0.5 Z M 68.68337143589547 0.5 L 93.03080537179093 0.5 L 93.03080537179093 3.5 L 100.03080537179093 0 L 93.03080537179093 -3.5 L 93.03080537179093 -0.5 L 68.68337143589547 -0.5 Z"/><text text-anchor="middle" pointer-events="none" font-size="8px" fill="#000000" x="59.01540268589547" y="3" font-family="sans-serif">trek</text></g><g class="relationship" transform="translate(119.45365450005085 267.25423957252656) rotate(302.98119663534214)"><path class="outline" fill="#A5ABB6" stroke="none" d="M 25 0.5 L 47.42210862683403 0.5 L 47.42210862683403 -0.5 L 25 -0.5 Z M 66.75804612683403 0.5 L 89.18015475366806 0.5 L 89.18015475366806 3.5 L 96.18015475366806 0 L 89.18015475366806 -3.5 L 89.18015475366806 -0.5 L 66.75804612683403 -0.5 Z"/><text text-anchor="middle" pointer-events="none" font-size="8px" fill="#000000" x="57.09007737683403" y="3" font-family="sans-serif">trek</text></g></g><g class="layer nodes"><g class="node" transform="translate(-3.1728507649380298,-107.4977051213734)"><circle class="outline" cx="0" cy="0" r="25" fill="#F16667" stroke="#eb2728" stroke-width="2px"/><text text-anchor="middle" pointer-events="none" font-family="sans-serif" dy="1.5625" font-size="25" fill="#FFFFFF"/><text text-anchor="middle" pointer-events="none" x="0" y="5" font-size="10px" fill="#FFFFFF" font-family="sans-serif"> Darjeeling</text></g><g class="node" transform="translate(185.41974042249328,165.60235609663673)"><circle class="outline" cx="0" cy="0" r="25" fill="#D9C8AE" stroke="#c0a378" stroke-width="2px"/><text text-anchor="middle" pointer-events="none" font-family="sans-serif" dy="1.5625" font-size="25" fill="#2A2C34"/><text text-anchor="middle" pointer-events="none" x="0" y="5" font-size="10px" fill="#2A2C34" font-family="sans-serif"> Sandak…</text></g><g class="node" transform="translate(102.99752690429584,-83.85646890219572)"><circle class="outline" cx="0" cy="0" r="25" fill="#8DCC93" stroke="#5db665" stroke-width="2px"/><text text-anchor="middle" pointer-events="none" font-family="sans-serif" dy="1.5625" font-size="25" fill="#2A2C34"/><text text-anchor="middle" pointer-events="none" x="0" y="5" font-size="10px" fill="#2A2C34" font-family="sans-serif"> Tumbling</text></g><g class="node" transform="translate(207.71687319016857,-35.852796836906506)"><circle class="outline" cx="0" cy="0" r="25" fill="#8DCC93" stroke="#5db665" stroke-width="2px"/><text text-anchor="middle" pointer-events="none" font-family="sans-serif" dy="1.5625" font-size="25" fill="#2A2C34"/><text text-anchor="middle" pointer-events="none" x="0" y="5" font-size="10px" fill="#2A2C34" font-family="sans-serif"> Gairibus</text></g><g class="node" transform="translate(136.61081407576717,52.10200555833071)"><circle class="outline" cx="0" cy="0" r="25" fill="#8DCC93" stroke="#5db665" stroke-width="2px"/><text text-anchor="middle" pointer-events="none" font-family="sans-serif" dy="1.5625" font-size="25" fill="#2A2C34"/><text text-anchor="middle" pointer-events="none" x="0" y="5" font-size="10px" fill="#2A2C34" font-family="sans-serif"> BhikeBh…</text></g><g class="node" transform="translate(18.471728044824317,-5.267619216057398)"><circle class="outline" cx="0" cy="0" r="25" fill="#F16667" stroke="#eb2728" stroke-width="2px"/><text text-anchor="middle" pointer-events="none" font-family="sans-serif" dy="1.5625" font-size="25" fill="#FFFFFF"/><text text-anchor="middle" pointer-events="none" x="0" y="5" font-size="10px" fill="#FFFFFF" font-family="sans-serif"> Rimbik</text></g><g class="node" transform="translate(-18.790620398201554,118.25838311558975)"><circle class="outline" cx="0" cy="0" r="25" fill="#8DCC93" stroke="#5db665" stroke-width="2px"/><text text-anchor="middle" pointer-events="none" font-family="sans-serif" dy="1.5625" font-size="25" fill="#2A2C34"/><text text-anchor="middle" pointer-events="none" x="0" y="5" font-size="10px" fill="#2A2C34" font-family="sans-serif"> Sirikhola</text></g><g class="node" transform="translate(75.13434736366469,177.52305633088068)"><circle class="outline" cx="0" cy="0" r="25" fill="#8DCC93" stroke="#5db665" stroke-width="2px"/><text text-anchor="middle" pointer-events="none" font-family="sans-serif" dy="1.5625" font-size="25" fill="#2A2C34"/><text text-anchor="middle" pointer-events="none" x="0" y="5" font-size="10px" fill="#2A2C34" font-family="sans-serif"> Gurdum</text></g><g class="node" transform="translate(-2.7801777732962907,240.95609249540522)"><circle class="outline" cx="0" cy="0" r="25" fill="#8DCC93" stroke="#5db665" stroke-width="2px"/><text text-anchor="middle" pointer-events="none" font-family="sans-serif" dy="1.5625" font-size="25" fill="#2A2C34"/><text text-anchor="middle" pointer-events="none" x="0" y="5" font-size="10px" fill="#2A2C34" font-family="sans-serif"> Rammam</text></g><g class="node" transform="translate(119.45365450005085,267.25423957252656)"><circle class="outline" cx="0" cy="0" r="25" fill="#D9C8AE" stroke="#c0a378" stroke-width="2px"/><text text-anchor="middle" pointer-events="none" font-family="sans-serif" dy="1.5625" font-size="25" fill="#2A2C34"/><text text-anchor="middle" pointer-events="none" x="0" y="5" font-size="10px" fill="#2A2C34" font-family="sans-serif"> Sabargr…</text></g></g></svg>