<svg xmlns="http://www.w3.org/2000/svg" width="221.34075927734375" height="258.6981201171875" viewBox="-7.457036972045898 -42.15857696533203 221.34075927734375 258.6981201171875"><title>Neo4j Graph Visualization</title><desc>Created using Neo4j (http://www.neo4j.com/)</desc><g class="layer relationships"><g class="relationship" transform="translate(184.88372697174225 -11.752631548079252) rotate(522.7976766294031)"><path class="outline" fill="#A5ABB6" stroke="none" d="M 21.40063509461097,12.933012701892217 L 21.90063509461097,12.06698729810778 A 124.85501330493342 124.85501330493342 0 0 0 51.51027312603612,24.404148283689437 L 51.24742530156878,25.368985586644087 A 125.85501330493342 125.85501330493342 0 0 1 21.40063509461097,12.933012701892217 Z M 112.58399658393327,26.581499870503677 L 112.35948542545924,25.607028352335675 A 124.85501330493342 124.85501330493342 0 0 0 142.43356732680036,14.449707736363328 L 141.03741772795777,11.794379828617902 L 148.86202404468008,11.634579990354872 L 144.2951001252571,17.99014494669056 L 142.89895052641452,15.334817038945134 A 125.85501330493342 125.85501330493342 0 0 1 112.58399658393327,26.581499870503677"/><text text-anchor="middle" pointer-events="none" font-size="8px" fill="#000000" x="81.85058143856747" y="32.26990121558478" transform="rotate(180 81.85058143856747 29.26990121558478)" font-family="sans-serif">PublicTransport</text></g><g class="relationship" transform="translate(21.542962827850403 38.81703954212672) rotate(445.7986569972513)"><path class="outline" fill="#A5ABB6" stroke="none" d="M 25 0.5 L 39.49457929410026 0.5 L 39.49457929410026 -0.5 L 25 -0.5 Z M 58.83051679410026 0.5 L 73.32509608820052 0.5 L 73.32509608820052 3.5 L 80.32509608820052 0 L 73.32509608820052 -3.5 L 73.32509608820052 -0.5 L 58.83051679410026 -0.5 Z"/><text text-anchor="middle" pointer-events="none" font-size="8px" fill="#000000" x="49.16254804410026" y="3" font-family="sans-serif">trek</text></g><g class="relationship" transform="translate(29.259245146779048 143.85910184653534) rotate(384.28392578994533)"><path class="outline" fill="#A5ABB6" stroke="none" d="M 25 0.5 L 39.937823990759135 0.5 L 39.937823990759135 -0.5 L 25 -0.5 Z M 59.273761490759135 0.5 L 74.21158548151827 0.5 L 74.21158548151827 3.5 L 81.21158548151827 0 L 74.21158548151827 -3.5 L 74.21158548151827 -0.5 L 59.273761490759135 -0.5 Z"/><text text-anchor="middle" pointer-events="none" font-size="8px" fill="#000000" x="49.605792740759135" y="3" font-family="sans-serif">trek</text></g><g class="relationship" transform="translate(184.88372697174225 -11.752631548079252) rotate(522.7976766294031)"><path class="outline" fill="#A5ABB6" stroke="none" d="M 25 0.5 L 72.32690955461267 0.5 L 72.32690955461267 -0.5 L 25 -0.5 Z M 91.66284705461267 0.5 L 138.98975660922534 0.5 L 138.98975660922534 3.5 L 145.98975660922534 0 L 138.98975660922534 -3.5 L 138.98975660922534 -0.5 L 91.66284705461267 -0.5 Z"/><text text-anchor="middle" pointer-events="none" font-size="8px" fill="#000000" x="81.99487830461267" y="3" transform="rotate(180 81.99487830461267 0)" font-family="sans-serif">trek</text></g><g class="relationship" transform="translate(184.88372697174225 -11.752631548079252) rotate(522.7976766294031)"><path class="outline" fill="#A5ABB6" stroke="none" d="M 21.40063509461097,-12.933012701892217 L 21.90063509461097,-12.06698729810778 A 124.85501330493342 124.85501330493342 0 0 1 70.92422409123748,-28.072807592333717 L 70.81686822861701,-29.067028251322967 A 125.85501330493342 125.85501330493342 0 0 0 21.40063509461097,-12.933012701892217 Z M 92.88369219836902,-29.503249883920688 L 92.81571278120776,-28.505563160122875 A 124.85501330493342 124.85501330493342 0 0 1 142.43356732680036,-14.449707736363328 L 141.03741772795777,-11.794379828617902 L 148.86202404468008,-11.634579990354872 L 144.2951001252571,-17.99014494669056 L 142.89895052641452,-15.334817038945134 A 125.85501330493342 125.85501330493342 0 0 0 92.88369219836902,-29.503249883920688"/><text text-anchor="middle" pointer-events="none" font-size="8px" fill="#000000" x="81.85058143856746" y="-26.26990121558478" transform="rotate(180 81.85058143856746 -29.26990121558478)" font-family="sans-serif">road</text></g></g><g class="layer nodes"><g class="node" transform="translate(184.88372697174225,-11.752631548079252)"><circle class="outline" cx="0" cy="0" r="25" fill="#F16667" stroke="#eb2728" stroke-width="2px"/><text text-anchor="middle" pointer-events="none" font-family="sans-serif" dy="1.5625" font-size="25" fill="#FFFFFF"/><text text-anchor="middle" pointer-events="none" x="0" y="5" font-size="10px" fill="#FFFFFF" font-family="sans-serif"> Darjeeling</text></g><g class="node" transform="translate(126.07309043448359,187.53953512170182)"><circle class="outline" cx="0" cy="0" r="25" fill="#D9C8AE" stroke="#c0a378" stroke-width="2px"/><text text-anchor="middle" pointer-events="none" font-family="sans-serif" dy="1.5625" font-size="25" fill="#2A2C34"/><text text-anchor="middle" pointer-events="none" x="0" y="5" font-size="10px" fill="#2A2C34" font-family="sans-serif"> Sandak…</text></g><g class="node" transform="translate(21.542962827850403,38.81703954212672)"><circle class="outline" cx="0" cy="0" r="25" fill="#F16667" stroke="#eb2728" stroke-width="2px"/><text text-anchor="middle" pointer-events="none" font-family="sans-serif" dy="1.5625" font-size="25" fill="#FFFFFF"/><text text-anchor="middle" pointer-events="none" x="0" y="5" font-size="10px" fill="#FFFFFF" font-family="sans-serif"> Rimbik</text></g><g class="node" transform="translate(29.259245146779048,143.85910184653534)"><circle class="outline" cx="0" cy="0" r="25" fill="#8DCC93" stroke="#5db665" stroke-width="2px"/><text text-anchor="middle" pointer-events="none" font-family="sans-serif" dy="1.5625" font-size="25" fill="#2A2C34"/><text text-anchor="middle" pointer-events="none" x="0" y="5" font-size="10px" fill="#2A2C34" font-family="sans-serif"> BhikeBh…</text></g></g></svg>