<svg xmlns="http://www.w3.org/2000/svg" width="330.726318359375" height="325.6068115234375" viewBox="-64.70808410644531 -67.33674621582031 330.726318359375 325.6068115234375"><title>Neo4j Graph Visualization</title><desc>Created using Neo4j (http://www.neo4j.com/)</desc><g class="layer relationships"><g class="relationship" transform="translate(178.77740474635078 209.11542495423555) rotate(235.4765099205922)"><path class="outline" fill="#A5ABB6" stroke="none" d="M 25 0.5 L 42.86918480078363 0.5 L 42.86918480078363 -0.5 L 25 -0.5 Z M 88.43168480078363 0.5 L 106.30086960156726 0.5 L 106.30086960156726 3.5 L 113.30086960156726 0 L 106.30086960156726 -3.5 L 106.30086960156726 -0.5 L 88.43168480078363 -0.5 Z"/><text text-anchor="middle" pointer-events="none" font-size="8px" fill="#000000" x="65.65043480078363" y="3" transform="rotate(180 65.65043480078363 0)" font-family="sans-serif">ACTED_IN</text></g><g class="relationship" transform="translate(122.28142170615813 229.2700710313569) rotate(260.73099631870105)"><path class="outline" fill="#A5ABB6" stroke="none" d="M 25 0.5 L 41.655748313614396 0.5 L 41.655748313614396 -0.5 L 25 -0.5 Z M 87.2182483136144 0.5 L 103.87399662722879 0.5 L 103.87399662722879 3.5 L 110.87399662722879 0 L 103.87399662722879 -3.5 L 103.87399662722879 -0.5 L 87.2182483136144 -0.5 Z"/><text text-anchor="middle" pointer-events="none" font-size="8px" fill="#000000" x="64.4369983136144" y="3" transform="rotate(180 64.4369983136144 0)" font-family="sans-serif">ACTED_IN</text></g><g class="relationship" transform="translate(217.09877655583946 163.00329425926608) rotate(210.16720192744884)"><path class="outline" fill="#A5ABB6" stroke="none" d="M 25 0.5 L 41.21101016218904 0.5 L 41.21101016218904 -0.5 L 25 -0.5 Z M 86.77351016218904 0.5 L 102.98452032437808 0.5 L 102.98452032437808 3.5 L 109.98452032437808 0 L 102.98452032437808 -3.5 L 102.98452032437808 -0.5 L 86.77351016218904 -0.5 Z"/><text text-anchor="middle" pointer-events="none" font-size="8px" fill="#000000" x="63.99226016218904" y="3" transform="rotate(180 63.99226016218904 0)" font-family="sans-serif">ACTED_IN</text></g><g class="relationship" transform="translate(227.8123927113063 47.15874230643407) rotate(519.3531889503165)"><path class="outline" fill="#A5ABB6" stroke="none" d="M 25 0.5 L 41.799552091958674 0.5 L 41.799552091958674 -0.5 L 25 -0.5 Z M 87.36205209195867 0.5 L 104.16160418391735 0.5 L 104.16160418391735 3.5 L 111.16160418391735 0 L 104.16160418391735 -3.5 L 104.16160418391735 -0.5 L 87.36205209195867 -0.5 Z"/><text text-anchor="middle" pointer-events="none" font-size="8px" fill="#000000" x="64.58080209195867" y="3" transform="rotate(180 64.58080209195867 0)" font-family="sans-serif">ACTED_IN</text></g><g class="relationship" transform="translate(237.01825405319025 106.41157441261278) rotate(184.70375570265332)"><path class="outline" fill="#A5ABB6" stroke="none" d="M 25 0.5 L 42.2606211810035 0.5 L 42.2606211810035 -0.5 L 25 -0.5 Z M 87.8231211810035 0.5 L 105.083742362007 0.5 L 105.083742362007 3.5 L 112.083742362007 0 L 105.083742362007 -3.5 L 105.083742362007 -0.5 L 87.8231211810035 -0.5 Z"/><text text-anchor="middle" pointer-events="none" font-size="8px" fill="#000000" x="65.0418711810035" y="3" transform="rotate(180 65.0418711810035 0)" font-family="sans-serif">ACTED_IN</text></g><g class="relationship" transform="translate(197.8623068735484 -4.845073052108927) rotate(494.2604479390902)"><path class="outline" fill="#A5ABB6" stroke="none" d="M 25 0.5 L 43.54476878565751 0.5 L 43.54476878565751 -0.5 L 25 -0.5 Z M 89.10726878565751 0.5 L 107.65203757131502 0.5 L 107.65203757131502 3.5 L 114.65203757131502 0 L 107.65203757131502 -3.5 L 107.65203757131502 -0.5 L 89.10726878565751 -0.5 Z"/><text text-anchor="middle" pointer-events="none" font-size="8px" fill="#000000" x="66.32601878565751" y="3" transform="rotate(180 66.32601878565751 0)" font-family="sans-serif">ACTED_IN</text></g><g class="relationship" transform="translate(78.21137576868216 -38.3367505706965) rotate(440.5653740018904)"><path class="outline" fill="#A5ABB6" stroke="none" d="M 25 0.5 L 41.38755315887637 0.5 L 41.38755315887637 -0.5 L 25 -0.5 Z M 86.95005315887637 0.5 L 103.33760631775274 0.5 L 103.33760631775274 3.5 L 110.33760631775274 0 L 103.33760631775274 -3.5 L 103.33760631775274 -0.5 L 86.95005315887637 -0.5 Z"/><text text-anchor="middle" pointer-events="none" font-size="8px" fill="#000000" x="64.16880315887637" y="3" font-family="sans-serif">ACTED_IN</text></g><g class="relationship" transform="translate(140.905893620852 -33.30354566554085) rotate(467.50084178571075)"><path class="outline" fill="#A5ABB6" stroke="none" d="M 25 0.5 L 41.07328438691941 0.5 L 41.07328438691941 -0.5 L 25 -0.5 Z M 86.63578438691941 0.5 L 102.70906877383882 0.5 L 102.70906877383882 3.5 L 109.70906877383882 0 L 102.70906877383882 -3.5 L 102.70906877383882 -0.5 L 86.63578438691941 -0.5 Z"/><text text-anchor="middle" pointer-events="none" font-size="8px" fill="#000000" x="63.85453438691941" y="3" transform="rotate(180 63.85453438691941 0)" font-family="sans-serif">ACTED_IN</text></g><g class="relationship" transform="translate(20.64411362647766 -16.321267169874677) rotate(414.42309093446596)"><path class="outline" fill="#A5ABB6" stroke="none" d="M 25 0.5 L 42.25840943127447 0.5 L 42.25840943127447 -0.5 L 25 -0.5 Z M 87.82090943127447 0.5 L 105.07931886254894 0.5 L 105.07931886254894 3.5 L 112.07931886254894 0 L 105.07931886254894 -3.5 L 105.07931886254894 -0.5 L 87.82090943127447 -0.5 Z"/><text text-anchor="middle" pointer-events="none" font-size="8px" fill="#000000" x="65.03965943127447" y="3" font-family="sans-serif">ACTED_IN</text></g><g class="relationship" transform="translate(-35.70808570499606 87.11922183567573) rotate(363.38526508742234)"><path class="outline" fill="#A5ABB6" stroke="none" d="M 25 0.5 L 41.889852160388756 0.5 L 41.889852160388756 -0.5 L 25 -0.5 Z M 87.45235216038876 0.5 L 104.34220432077751 0.5 L 104.34220432077751 3.5 L 111.34220432077751 0 L 104.34220432077751 -3.5 L 104.34220432077751 -0.5 L 87.45235216038876 -0.5 Z"/><text text-anchor="middle" pointer-events="none" font-size="8px" fill="#000000" x="64.67110216038876" y="3" font-family="sans-serif">ACTED_IN</text></g><g class="relationship" transform="translate(8.307916766691983 198.63784701283268) rotate(311.6697218630387)"><path class="outline" fill="#A5ABB6" stroke="none" d="M 25 0.5 L 42.975177798086435 0.5 L 42.975177798086435 -0.5 L 25 -0.5 Z M 88.53767779808643 0.5 L 106.51285559617287 0.5 L 106.51285559617287 3.5 L 113.51285559617287 0 L 106.51285559617287 -3.5 L 106.51285559617287 -0.5 L 88.53767779808643 -0.5 Z"/><text text-anchor="middle" pointer-events="none" font-size="8px" fill="#000000" x="65.75642779808643" y="3" font-family="sans-serif">ACTED_IN</text></g><g class="relationship" transform="translate(-25.812069519643046 146.62664809229912) rotate(337.81875151665747)"><path class="outline" fill="#A5ABB6" stroke="none" d="M 25 0.5 L 41.86619535731285 0.5 L 41.86619535731285 -0.5 L 25 -0.5 Z M 87.42869535731285 0.5 L 104.2948907146257 0.5 L 104.2948907146257 3.5 L 111.2948907146257 0 L 104.2948907146257 -3.5 L 104.2948907146257 -0.5 L 87.42869535731285 -0.5 Z"/><text text-anchor="middle" pointer-events="none" font-size="8px" fill="#000000" x="64.64744535731285" y="3" font-family="sans-serif">ACTED_IN</text></g><g class="relationship" transform="translate(-17.91305062678387 29.84087786074339) rotate(388.90708311421724)"><path class="outline" fill="#A5ABB6" stroke="none" d="M 25 0.5 L 41.292780805756536 0.5 L 41.292780805756536 -0.5 L 25 -0.5 Z M 86.85528080575654 0.5 L 103.14806161151307 0.5 L 103.14806161151307 3.5 L 110.14806161151307 0 L 103.14806161151307 -3.5 L 103.14806161151307 -0.5 L 86.85528080575654 -0.5 Z"/><text text-anchor="middle" pointer-events="none" font-size="8px" fill="#000000" x="64.07403080575654" y="3" font-family="sans-serif">ACTED_IN</text></g><g class="relationship" transform="translate(62.4902686209805 224.4065348742867) rotate(286.34678724202683)"><path class="outline" fill="#A5ABB6" stroke="none" d="M 25 0.5 L 41.05910800581643 0.5 L 41.05910800581643 -0.5 L 25 -0.5 Z M 86.62160800581643 0.5 L 102.68071601163285 0.5 L 102.68071601163285 3.5 L 109.68071601163285 0 L 102.68071601163285 -3.5 L 102.68071601163285 -0.5 L 86.62160800581643 -0.5 Z"/><text text-anchor="middle" pointer-events="none" font-size="8px" fill="#000000" x="63.84035800581643" y="3" font-family="sans-serif">ACTED_IN</text></g></g><g class="layer nodes"><g class="node" transform="translate(100.39620786307157,95.17018149188506)"><circle class="outline" cx="0" cy="0" r="25" fill="#F79767" stroke="#f36924" stroke-width="2px"/><text text-anchor="middle" pointer-events="none" font-family="sans-serif" dy="1.5625" font-size="25" fill="#FFFFFF"/><text text-anchor="middle" pointer-events="none" font-family="sans-serif" dy="1.5625" font-size="25" fill="#FFFFFF"/><text text-anchor="middle" pointer-events="none" font-family="sans-serif" dy="1.5625" font-size="25" fill="#FFFFFF"/><text text-anchor="middle" pointer-events="none" x="0" y="-5" font-size="10px" fill="#FFFFFF" font-family="sans-serif"> Captain</text><text text-anchor="middle" pointer-events="none" x="0" y="5" font-size="10px" fill="#FFFFFF" font-family="sans-serif"> America:</text><text text-anchor="middle" pointer-events="none" x="0" y="15" font-size="10px" fill="#FFFFFF" font-family="sans-serif"> The Fi…</text></g><g class="node" transform="translate(178.77740474635078,209.11542495423555)"><circle class="outline" cx="0" cy="0" r="25" fill="#57C7E3" stroke="#23b3d7" stroke-width="2px"/><text text-anchor="middle" pointer-events="none" font-family="sans-serif" dy="1.5625" font-size="25" fill="#2A2C34"/><text text-anchor="middle" pointer-events="none" font-family="sans-serif" dy="1.5625" font-size="25" fill="#2A2C34"/><text text-anchor="middle" pointer-events="none" x="0" y="0" font-size="10px" fill="#2A2C34" font-family="sans-serif"> Richard</text><text text-anchor="middle" pointer-events="none" x="0" y="10" font-size="10px" fill="#2A2C34" font-family="sans-serif"> Armitage</text></g><g class="node" transform="translate(122.28142170615813,229.2700710313569)"><circle class="outline" cx="0" cy="0" r="25" fill="#57C7E3" stroke="#23b3d7" stroke-width="2px"/><text text-anchor="middle" pointer-events="none" font-family="sans-serif" dy="1.5625" font-size="25" fill="#2A2C34"/><text text-anchor="middle" pointer-events="none" font-family="sans-serif" dy="1.5625" font-size="25" fill="#2A2C34"/><text text-anchor="middle" pointer-events="none" x="0" y="0" font-size="10px" fill="#2A2C34" font-family="sans-serif"> Tommy</text><text text-anchor="middle" pointer-events="none" x="0" y="10" font-size="10px" fill="#2A2C34" font-family="sans-serif"> Lee Jon…</text></g><g class="node" transform="translate(217.09877655583946,163.00329425926608)"><circle class="outline" cx="0" cy="0" r="25" fill="#57C7E3" stroke="#23b3d7" stroke-width="2px"/><text text-anchor="middle" pointer-events="none" font-family="sans-serif" dy="1.5625" font-size="25" fill="#2A2C34"/><text text-anchor="middle" pointer-events="none" x="0" y="5" font-size="10px" fill="#2A2C34" font-family="sans-serif"> Sebastian</text></g><g class="node" transform="translate(227.8123927113063,47.15874230643407)"><circle class="outline" cx="0" cy="0" r="25" fill="#57C7E3" stroke="#23b3d7" stroke-width="2px"/><text text-anchor="middle" pointer-events="none" font-family="sans-serif" dy="1.5625" font-size="25" fill="#2A2C34"/><text text-anchor="middle" pointer-events="none" font-family="sans-serif" dy="1.5625" font-size="25" fill="#2A2C34"/><text text-anchor="middle" pointer-events="none" x="0" y="0" font-size="10px" fill="#2A2C34" font-family="sans-serif"> Stanley</text><text text-anchor="middle" pointer-events="none" x="0" y="10" font-size="10px" fill="#2A2C34" font-family="sans-serif"> Tucci</text></g><g class="node" transform="translate(237.01825405319025,106.41157441261278)"><circle class="outline" cx="0" cy="0" r="25" fill="#57C7E3" stroke="#23b3d7" stroke-width="2px"/><text text-anchor="middle" pointer-events="none" font-family="sans-serif" dy="1.5625" font-size="25" fill="#2A2C34"/><text text-anchor="middle" pointer-events="none" font-family="sans-serif" dy="1.5625" font-size="25" fill="#2A2C34"/><text text-anchor="middle" pointer-events="none" x="0" y="0" font-size="10px" fill="#2A2C34" font-family="sans-serif"> Toby</text><text text-anchor="middle" pointer-events="none" x="0" y="10" font-size="10px" fill="#2A2C34" font-family="sans-serif"> Jones</text></g><g class="node" transform="translate(197.8623068735484,-4.845073052108927)"><circle class="outline" cx="0" cy="0" r="25" fill="#57C7E3" stroke="#23b3d7" stroke-width="2px"/><text text-anchor="middle" pointer-events="none" font-family="sans-serif" dy="1.5625" font-size="25" fill="#2A2C34"/><text text-anchor="middle" pointer-events="none" x="0" y="5" font-size="10px" fill="#2A2C34" font-family="sans-serif"> JJ Feild</text></g><g class="node" transform="translate(78.21137576868216,-38.3367505706965)"><circle class="outline" cx="0" cy="0" r="25" fill="#57C7E3" stroke="#23b3d7" stroke-width="2px"/><text text-anchor="middle" pointer-events="none" font-family="sans-serif" dy="1.5625" font-size="25" fill="#2A2C34"/><text text-anchor="middle" pointer-events="none" font-family="sans-serif" dy="1.5625" font-size="25" fill="#2A2C34"/><text text-anchor="middle" pointer-events="none" x="0" y="0" font-size="10px" fill="#2A2C34" font-family="sans-serif"> Dominic</text><text text-anchor="middle" pointer-events="none" x="0" y="10" font-size="10px" fill="#2A2C34" font-family="sans-serif"> Cooper</text></g><g class="node" transform="translate(140.905893620852,-33.30354566554085)"><circle class="outline" cx="0" cy="0" r="25" fill="#57C7E3" stroke="#23b3d7" stroke-width="2px"/><text text-anchor="middle" pointer-events="none" font-family="sans-serif" dy="1.5625" font-size="25" fill="#2A2C34"/><text text-anchor="middle" pointer-events="none" font-family="sans-serif" dy="1.5625" font-size="25" fill="#2A2C34"/><text text-anchor="middle" pointer-events="none" x="0" y="0" font-size="10px" fill="#2A2C34" font-family="sans-serif"> Hugo</text><text text-anchor="middle" pointer-events="none" x="0" y="10" font-size="10px" fill="#2A2C34" font-family="sans-serif"> Weaving</text></g><g class="node" transform="translate(20.64411362647766,-16.321267169874677)"><circle class="outline" cx="0" cy="0" r="25" fill="#57C7E3" stroke="#23b3d7" stroke-width="2px"/><text text-anchor="middle" pointer-events="none" font-family="sans-serif" dy="1.5625" font-size="25" fill="#2A2C34"/><text text-anchor="middle" pointer-events="none" font-family="sans-serif" dy="1.5625" font-size="25" fill="#2A2C34"/><text text-anchor="middle" pointer-events="none" font-family="sans-serif" dy="1.5625" font-size="25" fill="#2A2C34"/><text text-anchor="middle" pointer-events="none" x="0" y="-5" font-size="10px" fill="#2A2C34" font-family="sans-serif"> Samuel</text><text text-anchor="middle" pointer-events="none" x="0" y="5" font-size="10px" fill="#2A2C34" font-family="sans-serif"> L.</text><text text-anchor="middle" pointer-events="none" x="0" y="15" font-size="10px" fill="#2A2C34" font-family="sans-serif"> Jackson</text></g><g class="node" transform="translate(-35.70808570499606,87.11922183567573)"><circle class="outline" cx="0" cy="0" r="25" fill="#57C7E3" stroke="#23b3d7" stroke-width="2px"/><text text-anchor="middle" pointer-events="none" font-family="sans-serif" dy="1.5625" font-size="25" fill="#2A2C34"/><text text-anchor="middle" pointer-events="none" font-family="sans-serif" dy="1.5625" font-size="25" fill="#2A2C34"/><text text-anchor="middle" pointer-events="none" x="0" y="0" font-size="10px" fill="#2A2C34" font-family="sans-serif"> Chris</text><text text-anchor="middle" pointer-events="none" x="0" y="10" font-size="10px" fill="#2A2C34" font-family="sans-serif"> Evans</text></g><g class="node" transform="translate(8.307916766691983,198.63784701283268)"><circle class="outline" cx="0" cy="0" r="25" fill="#57C7E3" stroke="#23b3d7" stroke-width="2px"/><text text-anchor="middle" pointer-events="none" font-family="sans-serif" dy="1.5625" font-size="25" fill="#2A2C34"/><text text-anchor="middle" pointer-events="none" font-family="sans-serif" dy="1.5625" font-size="25" fill="#2A2C34"/><text text-anchor="middle" pointer-events="none" x="0" y="0" font-size="10px" fill="#2A2C34" font-family="sans-serif"> Hayley</text><text text-anchor="middle" pointer-events="none" x="0" y="10" font-size="10px" fill="#2A2C34" font-family="sans-serif"> Atwell</text></g><g class="node" transform="translate(-25.812069519643046,146.62664809229912)"><circle class="outline" cx="0" cy="0" r="25" fill="#57C7E3" stroke="#23b3d7" stroke-width="2px"/><text text-anchor="middle" pointer-events="none" font-family="sans-serif" dy="1.5625" font-size="25" fill="#2A2C34"/><text text-anchor="middle" pointer-events="none" x="0" y="5" font-size="10px" fill="#2A2C34" font-family="sans-serif"> Kenneth</text></g><g class="node" transform="translate(-17.91305062678387,29.84087786074339)"><circle class="outline" cx="0" cy="0" r="25" fill="#57C7E3" stroke="#23b3d7" stroke-width="2px"/><text text-anchor="middle" pointer-events="none" font-family="sans-serif" dy="1.5625" font-size="25" fill="#2A2C34"/><text text-anchor="middle" pointer-events="none" font-family="sans-serif" dy="1.5625" font-size="25" fill="#2A2C34"/><text text-anchor="middle" pointer-events="none" x="0" y="0" font-size="10px" fill="#2A2C34" font-family="sans-serif"> Derek</text><text text-anchor="middle" pointer-events="none" x="0" y="10" font-size="10px" fill="#2A2C34" font-family="sans-serif"> Luke</text></g><g class="node" transform="translate(62.4902686209805,224.4065348742867)"><circle class="outline" cx="0" cy="0" r="25" fill="#57C7E3" stroke="#23b3d7" stroke-width="2px"/><text text-anchor="middle" pointer-events="none" font-family="sans-serif" dy="1.5625" font-size="25" fill="#2A2C34"/><text text-anchor="middle" pointer-events="none" font-family="sans-serif" dy="1.5625" font-size="25" fill="#2A2C34"/><text text-anchor="middle" pointer-events="none" x="0" y="0" font-size="10px" fill="#2A2C34" font-family="sans-serif"> Neal</text><text text-anchor="middle" pointer-events="none" x="0" y="10" font-size="10px" fill="#2A2C34" font-family="sans-serif"> McDon…</text></g></g></svg>