<svg xmlns="http://www.w3.org/2000/svg" width="866.1239624023438" height="360.9571533203125" viewBox="-294.73565673828125 -99.84794616699219 866.1239624023438 360.9571533203125"><title>Neo4j Graph Visualization</title><desc>Created using Neo4j (http://www.neo4j.com/)</desc><g class="layer relationships"><g class="relationship" transform="translate(458.63573879918135 165.5621975830899) rotate(180.43583150720042)"><path class="outline" fill="#A5ABB6" stroke="none" d="M 25 0.5 L 177.8147542382446 0.5 L 177.8147542382446 -0.5 L 25 -0.5 Z M 224.7053792382446 0.5 L 377.5201334764892 0.5 L 377.5201334764892 3.5 L 384.5201334764892 0 L 377.5201334764892 -3.5 L 377.5201334764892 -0.5 L 224.7053792382446 -0.5 Z"/><text text-anchor="middle" pointer-events="none" font-size="8px" fill="#000000" x="201.2600667382446" y="3" transform="rotate(180 201.2600667382446 0)" font-family="sans-serif">DIRECTED</text></g><g class="relationship" transform="translate(458.63573879918135 165.5621975830899) rotate(534.6855703706349)"><path class="outline" fill="#A5ABB6" stroke="none" d="M 25 0.5 L 332.2967865584149 0.5 L 332.2967865584149 -0.5 L 25 -0.5 Z M 379.1874115584149 0.5 L 686.4841981168298 0.5 L 686.4841981168298 3.5 L 693.4841981168298 0 L 686.4841981168298 -3.5 L 686.4841981168298 -0.5 L 379.1874115584149 -0.5 Z"/><text text-anchor="middle" pointer-events="none" font-size="8px" fill="#000000" x="355.7420990584149" y="3" transform="rotate(180 355.7420990584149 0)" font-family="sans-serif">DIRECTED</text></g><g class="relationship" transform="translate(458.63573879918135 165.5621975830899) rotate(203.3364252779786)"><path class="outline" fill="#A5ABB6" stroke="none" d="M 25 0.5 L 243.1505193843612 0.5 L 243.1505193843612 -0.5 L 25 -0.5 Z M 290.0411443843612 0.5 L 508.1916637687224 0.5 L 508.1916637687224 3.5 L 515.1916637687224 0 L 508.1916637687224 -3.5 L 508.1916637687224 -0.5 L 290.0411443843612 -0.5 Z"/><text text-anchor="middle" pointer-events="none" font-size="8px" fill="#000000" x="266.5958318843612" y="3" transform="rotate(180 266.5958318843612 0)" font-family="sans-serif">DIRECTED</text></g><g class="relationship" transform="translate(458.63573879918135 165.5621975830899) rotate(206.94438700410325)"><path class="outline" fill="#A5ABB6" stroke="none" d="M 25 0.5 L 182.38683335180016 0.5 L 182.38683335180016 -0.5 L 25 -0.5 Z M 229.27745835180016 0.5 L 386.6642917036003 0.5 L 386.6642917036003 3.5 L 393.6642917036003 0 L 386.6642917036003 -3.5 L 386.6642917036003 -0.5 L 229.27745835180016 -0.5 Z"/><text text-anchor="middle" pointer-events="none" font-size="8px" fill="#000000" x="205.83214585180016" y="3" transform="rotate(180 205.83214585180016 0)" font-family="sans-serif">DIRECTED</text></g><g class="relationship" transform="translate(458.63573879918135 165.5621975830899) rotate(192.2488449370386)"><path class="outline" fill="#A5ABB6" stroke="none" d="M 24.018736134675446,6.953439040707552 L 24.277555179777966,5.987513214418485 A 468.823393980782 468.823393980782 0 0 0 124.91976068919787,21.5051543628893 L 124.87561140418319,22.50417930783948 A 469.823393980782 469.823393980782 0 0 1 24.018736134675446,6.953439040707552 Z M 160.67783619914096,22.72085438253464 L 160.64578190371745,21.721368253493836 A 468.823393980782 468.823393980782 0 0 0 261.4684339560699,7.422992480586695 L 260.7271071124533,4.516029372645098 L 268.37490234853635,6.177723696804922 L 262.45686974755864,11.29894329117549 L 261.7155429039421,8.391980183233894 A 469.823393980782 469.823393980782 0 0 1 160.67783619914096,22.72085438253464"/><text text-anchor="middle" pointer-events="none" font-size="8px" fill="#000000" x="142.77768503187272" y="25.453688331434932" transform="rotate(180 142.77768503187272 22.453688331434932)" font-family="sans-serif">WROTE</text></g><g class="relationship" transform="translate(458.63573879918135 165.5621975830899) rotate(192.2488449370386)"><path class="outline" fill="#A5ABB6" stroke="none" d="M 24.018736134675446,-6.953439040707552 L 24.277555179777966,-5.987513214418485 A 468.823393980782 468.823393980782 0 0 1 116.93557452698973,-21.08407217377942 L 116.87439497798925,-22.082198950689133 A 469.823393980782 469.823393980782 0 0 0 24.018736134675446,-6.953439040707552 Z M 168.68357399378934,-22.39574811690528 L 168.63447981083104,-21.396953963338262 A 468.823393980782 468.823393980782 0 0 1 261.4684339560699,-7.422992480586695 L 260.7271071124533,-4.516029372645098 L 268.37490234853635,-6.177723696804922 L 262.45686974755864,-11.29894329117549 L 261.7155429039421,-8.391980183233894 A 469.823393980782 469.823393980782 0 0 0 168.68357399378934,-22.39574811690528"/><text text-anchor="middle" pointer-events="none" font-size="8px" fill="#000000" x="142.7776850318726" y="-19.453688331434932" transform="rotate(180 142.7776850318726 -22.453688331434932)" font-family="sans-serif">PRODUCED</text></g><g class="relationship" transform="translate(458.63573879918135 165.5621975830899) rotate(180.39867640105797)"><path class="outline" fill="#A5ABB6" stroke="none" d="M 24.018736134675446,6.953439040707552 L 24.277555179777966,5.987513214418485 A 1093.296618248971 1093.296618248971 0 0 0 286.1812806094405,43.037791986660295 L 286.1620156991062,44.03760640105429 A 1094.296618248971 1094.296618248971 0 0 1 24.018736134675446,6.953439040707552 Z M 321.95005909953403,44.141865417377176 L 321.9366198574442,43.14195572806898 A 1093.296618248971 1093.296618248971 0 0 0 584.0517703799538,7.618267608747436 L 583.2922101000698,4.716015348653139 L 590.9502857001546,6.329668999033679 L 585.0645174197992,11.487937288873164 L 584.3049571399152,8.585685028778867 A 1094.296618248971 1094.296618248971 0 0 1 321.95005909953403,44.141865417377176"/><text text-anchor="middle" pointer-events="none" font-size="8px" fill="#000000" x="304.05706776798866" y="46.736050636440496" transform="rotate(180 304.05706776798866 43.736050636440496)" font-family="sans-serif">WROTE</text></g><g class="relationship" transform="translate(458.63573879918135 165.5621975830899) rotate(180.39867640105797)"><path class="outline" fill="#A5ABB6" stroke="none" d="M 24.018736134675446,-6.953439040707552 L 24.277555179777966,-5.987513214418485 A 1093.296618248971 1093.296618248971 0 0 1 280.626554832727,-42.91664051379348 L 280.602209209909,-43.91634411519226 A 1094.296618248971 1094.296618248971 0 0 0 24.018736134675446,-6.953439040707552 Z M 327.5104777433156,-44.05299897167538 L 327.49195722933746,-43.053170491103856 A 1093.296618248971 1093.296618248971 0 0 1 584.0517703799538,-7.618267608747436 L 583.2922101000698,-4.716015348653139 L 590.9502857001546,-6.329668999033679 L 585.0645174197992,-11.487937288873164 L 584.3049571399152,-8.585685028778867 A 1094.296618248971 1094.296618248971 0 0 0 327.5104777433156,-44.05299897167538"/><text text-anchor="middle" pointer-events="none" font-size="8px" fill="#000000" x="304.05706776798837" y="-40.736050636440496" transform="rotate(180 304.05706776798837 -43.736050636440496)" font-family="sans-serif">DIRECTED</text></g><g class="relationship" transform="translate(458.63573879918135 165.5621975830899) rotate(203.56585168261853)"><path class="outline" fill="#A5ABB6" stroke="none" d="M 25 0.5 L 122.30507427972623 0.5 L 122.30507427972623 -0.5 L 25 -0.5 Z M 174.08632427972623 0.5 L 271.39139855945245 0.5 L 271.39139855945245 3.5 L 278.39139855945245 0 L 271.39139855945245 -3.5 L 271.39139855945245 -0.5 L 174.08632427972623 -0.5 Z"/><text text-anchor="middle" pointer-events="none" font-size="8px" fill="#000000" x="148.19569927972623" y="3" transform="rotate(180 148.19569927972623 0)" font-family="sans-serif">PRODUCED</text></g><g class="relationship" transform="translate(298.0891253098337 -70.84794404495099) rotate(527.6143675341494)"><path class="outline" fill="#A5ABB6" stroke="none" d="M 25 0.5 L 81.92365009089009 0.5 L 81.92365009089009 -0.5 L 25 -0.5 Z M 128.81427509089008 0.5 L 185.73792518178018 0.5 L 185.73792518178018 3.5 L 192.73792518178018 0 L 185.73792518178018 -3.5 L 185.73792518178018 -0.5 L 128.81427509089008 -0.5 Z"/><text text-anchor="middle" pointer-events="none" font-size="8px" fill="#000000" x="105.36896259089009" y="3" transform="rotate(180 105.36896259089009 0)" font-family="sans-serif">DIRECTED</text></g><g class="relationship selected" transform="translate(-265.73564886627867 1.7083502353567468) rotate(415.60288221515054)"><path class="outline" fill="#A5ABB6" stroke="none" d="M 24.018736134675446,6.953439040707552 L 24.277555179777966,5.987513214418485 A 275.81242042065986 275.81242042065986 0 0 0 75.33062935957041,14.635135997172085 L 75.25691102204998,15.632415098884962 A 276.81242042065986 276.81242042065986 0 0 1 24.018736134675446,6.953439040707552 Z M 111.06859067170801,15.95657674441469 L 111.01293735894181,14.95812659103791 A 275.81242042065986 275.81242042065986 0 0 0 162.2141870658522,7.236093733635898 L 161.49031330588286,4.324735497412155 L 169.12800191036916,6.0322813330780205 L 163.17935207914468,11.117904715267557 L 162.45547831917534,8.206546479043812 A 276.81242042065986 276.81242042065986 0 0 1 111.06859067170801,15.95657674441469"/><text text-anchor="middle" pointer-events="none" font-size="8px" fill="#000000" x="93.16202870573152" y="18.87427429084346" font-family="sans-serif">WROTE</text></g><g class="relationship" transform="translate(-265.73564886627867 1.7083502353567468) rotate(415.60288221515054)"><path class="outline" fill="#A5ABB6" stroke="none" d="M 24.018736134675446,-6.953439040707552 L 24.277555179777966,-5.987513214418485 A 275.81242042065986 275.81242042065986 0 0 1 69.8016784489969,-14.17047841387506 L 69.70791405661737,-15.16607282864527 A 276.81242042065986 276.81242042065986 0 0 0 24.018736134675446,-6.953439040707552 Z M 116.62512020913728,-15.590759939075326 L 116.54939362968389,-14.593631318904215 A 275.81242042065986 275.81242042065986 0 0 1 162.2141870658522,-7.236093733635898 L 161.49031330588286,-4.324735497412155 L 169.12800191036916,-6.0322813330780205 L 163.17935207914468,-11.117904715267557 L 162.45547831917534,-8.206546479043812 A 276.81242042065986 276.81242042065986 0 0 0 116.62512020913728,-15.590759939075326"/><text text-anchor="middle" pointer-events="none" font-size="8px" fill="#000000" x="93.16202870573152" y="-12.87427429084346" font-family="sans-serif">DIRECTED</text></g><g class="relationship" transform="translate(-265.73564886627867 1.7083502353567468) rotate(373.0690065066608)"><path class="outline" fill="#A5ABB6" stroke="none" d="M 24.018736134675446,6.953439040707552 L 24.277555179777966,5.987513214418485 A 773.9947610654549 773.9947610654549 0 0 0 203.66011944787354,32.077378554232496 L 203.63306239043766,33.077012445036075 A 774.9947610654549 774.9947610654549 0 0 1 24.018736134675446,6.953439040707552 Z M 239.42613111440284,33.21895657517564 L 239.40700325482746,32.2191395294177 A 773.9947610654549 773.9947610654549 0 0 0 418.99085068647025,7.5528228506869795 L 418.23740097216296,4.648978239140037 L 425.8920630657977,6.278747619227713 L 419.9954503055467,11.424615666082902 L 419.2420005912394,8.52077105453596 A 774.9947610654549 774.9947610654549 0 0 1 239.42613111440284,33.21895657517564"/><text text-anchor="middle" pointer-events="none" font-size="8px" fill="#000000" x="221.53076000519147" y="35.85465511111681" font-family="sans-serif">WROTE</text></g><g class="relationship" transform="translate(-265.73564886627867 1.7083502353567468) rotate(365.447205094632)"><path class="outline" fill="#A5ABB6" stroke="none" d="M 25 0.5 L 194.7628690996229 0.5 L 194.7628690996229 -0.5 L 25 -0.5 Z M 246.5441190996229 0.5 L 416.3069881992458 0.5 L 416.3069881992458 3.5 L 423.3069881992458 0 L 416.3069881992458 -3.5 L 416.3069881992458 -0.5 L 246.5441190996229 -0.5 Z"/><text text-anchor="middle" pointer-events="none" font-size="8px" fill="#000000" x="220.6534940996229" y="3" font-family="sans-serif">PRODUCED</text></g><g class="relationship" transform="translate(-265.73564886627867 1.7083502353567468) rotate(373.0690065066608)"><path class="outline" fill="#A5ABB6" stroke="none" d="M 24.018736134675446,-6.953439040707552 L 24.277555179777966,-5.987513214418485 A 773.9947610654549 773.9947610654549 0 0 1 195.6655693952143,-31.819644646196366 L 195.6281833918284,-32.81894554520068 A 774.9947610654549 774.9947610654549 0 0 0 24.018736134675446,-6.953439040707552 Z M 247.43280512989492,-33.024386493182305 L 247.40334600820304,-32.024820507291906 A 773.9947610654549 773.9947610654549 0 0 1 418.99085068647025,-7.5528228506869795 L 418.23740097216296,-4.648978239140037 L 425.8920630657977,-6.278747619227713 L 419.9954503055467,-11.424615666082902 L 419.2420005912394,-8.52077105453596 A 774.9947610654549 774.9947610654549 0 0 0 247.43280512989492,-33.024386493182305"/><text text-anchor="middle" pointer-events="none" font-size="8px" fill="#000000" x="221.53076000519138" y="-29.854655111116813" font-family="sans-serif">PRODUCED</text></g><g class="relationship" transform="translate(-265.73564886627867 1.7083502353567468) rotate(355.7892199622198)"><path class="outline" fill="#A5ABB6" stroke="none" d="M 25 0.5 L 149.10713981221443 0.5 L 149.10713981221443 -0.5 L 25 -0.5 Z M 195.99776481221443 0.5 L 320.10490462442885 0.5 L 320.10490462442885 3.5 L 327.10490462442885 0 L 320.10490462442885 -3.5 L 320.10490462442885 -0.5 L 195.99776481221443 -0.5 Z"/><text text-anchor="middle" pointer-events="none" font-size="8px" fill="#000000" x="172.55245231221443" y="3" font-family="sans-serif">DIRECTED</text></g><g class="relationship" transform="translate(-265.73564886627867 1.7083502353567468) rotate(347.61879959039493)"><path class="outline" fill="#A5ABB6" stroke="none" d="M 25 0.5 L 89.95868481909532 0.5 L 89.95868481909532 -0.5 L 25 -0.5 Z M 136.8493098190953 0.5 L 201.80799463819065 0.5 L 201.80799463819065 3.5 L 208.80799463819065 0 L 201.80799463819065 -3.5 L 201.80799463819065 -0.5 L 136.8493098190953 -0.5 Z"/><text text-anchor="middle" pointer-events="none" font-size="8px" fill="#000000" x="113.40399731909532" y="3" font-family="sans-serif">DIRECTED</text></g><g class="relationship" transform="translate(-265.73564886627867 1.7083502353567468) rotate(447.76907180290704)"><path class="outline" fill="#A5ABB6" stroke="none" d="M 25 0.5 L 88.3424826925432 0.5 L 88.3424826925432 -0.5 L 25 -0.5 Z M 135.2331076925432 0.5 L 198.5755903850864 0.5 L 198.5755903850864 3.5 L 205.5755903850864 0 L 198.5755903850864 -3.5 L 198.5755903850864 -0.5 L 135.2331076925432 -0.5 Z"/><text text-anchor="middle" pointer-events="none" font-size="8px" fill="#000000" x="111.7877951925432" y="3" font-family="sans-serif">DIRECTED</text></g><g class="relationship" transform="translate(-265.73564886627867 1.7083502353567468) rotate(387.04448038068597)"><path class="outline" fill="#A5ABB6" stroke="none" d="M 25 0.5 L 149.8142199317543 0.5 L 149.8142199317543 -0.5 L 25 -0.5 Z M 196.7048449317543 0.5 L 321.5190648635086 0.5 L 321.5190648635086 3.5 L 328.5190648635086 0 L 321.5190648635086 -3.5 L 321.5190648635086 -0.5 L 196.7048449317543 -0.5 Z"/><text text-anchor="middle" pointer-events="none" font-size="8px" fill="#000000" x="173.2595324317543" y="3" font-family="sans-serif">DIRECTED</text></g><g class="relationship" transform="translate(542.388323106388 35.50487022650002) rotate(529.5806678096164)"><path class="outline" fill="#A5ABB6" stroke="none" d="M 25 0.5 L 160.99943213349857 0.5 L 160.99943213349857 -0.5 L 25 -0.5 Z M 207.89005713349857 0.5 L 343.88948926699715 0.5 L 343.88948926699715 3.5 L 350.88948926699715 0 L 343.88948926699715 -3.5 L 343.88948926699715 -0.5 L 207.89005713349857 -0.5 Z"/><text text-anchor="middle" pointer-events="none" font-size="8px" fill="#000000" x="184.44474463349857" y="3" transform="rotate(180 184.44474463349857 0)" font-family="sans-serif">DIRECTED</text></g><g class="relationship" transform="translate(542.388323106388 35.50487022650002) rotate(538.6130749849724)"><path class="outline" fill="#A5ABB6" stroke="none" d="M 25 0.5 L 154.02845408032024 0.5 L 154.02845408032024 -0.5 L 25 -0.5 Z M 200.91907908032024 0.5 L 329.9475331606405 0.5 L 329.9475331606405 3.5 L 336.9475331606405 0 L 329.9475331606405 -3.5 L 329.9475331606405 -0.5 L 200.91907908032024 -0.5 Z"/><text text-anchor="middle" pointer-events="none" font-size="8px" fill="#000000" x="177.47376658032024" y="3" transform="rotate(180 177.47376658032024 0)" font-family="sans-serif">DIRECTED</text></g></g><g class="layer nodes"><g class="node" transform="translate(298.0891253098337,-70.84794404495099)"><circle class="outline" cx="0" cy="0" r="25" fill="#57C7E3" stroke="#23b3d7" stroke-width="2px"/><text text-anchor="middle" pointer-events="none" font-family="sans-serif" dy="1.5625" font-size="25" fill="#2A2C34"/><text text-anchor="middle" pointer-events="none" font-family="sans-serif" dy="1.5625" font-size="25" fill="#2A2C34"/><text text-anchor="middle" pointer-events="none" x="0" y="0" font-size="10px" fill="#2A2C34" font-family="sans-serif"> Tom</text><text text-anchor="middle" pointer-events="none" x="0" y="10" font-size="10px" fill="#2A2C34" font-family="sans-serif"> Tykwer</text></g><g class="node" transform="translate(458.63573879918135,165.5621975830899)"><circle class="outline" cx="0" cy="0" r="25" fill="#57C7E3" stroke="#23b3d7" stroke-width="2px"/><text text-anchor="middle" pointer-events="none" font-family="sans-serif" dy="1.5625" font-size="25" fill="#2A2C34"/><text text-anchor="middle" pointer-events="none" font-family="sans-serif" dy="1.5625" font-size="25" fill="#2A2C34"/><text text-anchor="middle" pointer-events="none" x="0" y="0" font-size="10px" fill="#2A2C34" font-family="sans-serif"> Lana</text><text text-anchor="middle" pointer-events="none" x="0" y="10" font-size="10px" fill="#2A2C34" font-family="sans-serif"> Wacho…</text></g><g class="node" transform="translate(-265.73564886627867,1.7083502353567468)"><circle class="outline" cx="0" cy="0" r="25" fill="#57C7E3" stroke="#23b3d7" stroke-width="2px"/><text text-anchor="middle" pointer-events="none" font-family="sans-serif" dy="1.5625" font-size="25" fill="#2A2C34"/><text text-anchor="middle" pointer-events="none" font-family="sans-serif" dy="1.5625" font-size="25" fill="#2A2C34"/><text text-anchor="middle" pointer-events="none" x="0" y="0" font-size="10px" fill="#2A2C34" font-family="sans-serif"> Andy</text><text text-anchor="middle" pointer-events="none" x="0" y="10" font-size="10px" fill="#2A2C34" font-family="sans-serif"> Wacho…</text></g><g class="node" transform="translate(542.388323106388,35.50487022650002)"><circle class="outline" cx="0" cy="0" r="25" fill="#57C7E3" stroke="#23b3d7" stroke-width="2px"/><text text-anchor="middle" pointer-events="none" font-family="sans-serif" dy="1.5625" font-size="25" fill="#2A2C34"/><text text-anchor="middle" pointer-events="none" font-family="sans-serif" dy="1.5625" font-size="25" fill="#2A2C34"/><text text-anchor="middle" pointer-events="none" x="0" y="0" font-size="10px" fill="#2A2C34" font-family="sans-serif"> James</text><text text-anchor="middle" pointer-events="none" x="0" y="10" font-size="10px" fill="#2A2C34" font-family="sans-serif"> Marshall</text></g><g class="node" transform="translate(49.12745305272949,162.4471329603416)"><circle class="outline" cx="0" cy="0" r="25" fill="#F79767" stroke="#f36924" stroke-width="2px"/><text text-anchor="middle" pointer-events="none" font-family="sans-serif" dy="1.5625" font-size="25" fill="#FFFFFF"/><text text-anchor="middle" pointer-events="none" font-family="sans-serif" dy="1.5625" font-size="25" fill="#FFFFFF"/><text text-anchor="middle" pointer-events="none" x="0" y="0" font-size="10px" fill="#FFFFFF" font-family="sans-serif"> The</text><text text-anchor="middle" pointer-events="none" x="0" y="10" font-size="10px" fill="#FFFFFF" font-family="sans-serif"> Matrix</text></g><g class="node" transform="translate(-256.75998571526475,232.1091756514795)"><circle class="outline" cx="0" cy="0" r="25" fill="#F79767" stroke="#f36924" stroke-width="2px"/><text text-anchor="middle" pointer-events="none" font-family="sans-serif" dy="1.5625" font-size="25" fill="#FFFFFF"/><text text-anchor="middle" pointer-events="none" font-family="sans-serif" dy="1.5625" font-size="25" fill="#FFFFFF"/><text text-anchor="middle" pointer-events="none" font-family="sans-serif" dy="1.5625" font-size="25" fill="#FFFFFF"/><text text-anchor="middle" pointer-events="none" x="0" y="-5" font-size="10px" fill="#FFFFFF" font-family="sans-serif"> The</text><text text-anchor="middle" pointer-events="none" x="0" y="5" font-size="10px" fill="#FFFFFF" font-family="sans-serif"> Matrix</text><text text-anchor="middle" pointer-events="none" x="0" y="15" font-size="10px" fill="#FFFFFF" font-family="sans-serif"> Reloa…</text></g><g class="node" transform="translate(-37.36540073921617,-48.423557040510005)"><circle class="outline" cx="0" cy="0" r="25" fill="#F79767" stroke="#f36924" stroke-width="2px"/><text text-anchor="middle" pointer-events="none" font-family="sans-serif" dy="1.5625" font-size="25" fill="#FFFFFF"/><text text-anchor="middle" pointer-events="none" font-family="sans-serif" dy="1.5625" font-size="25" fill="#FFFFFF"/><text text-anchor="middle" pointer-events="none" font-family="sans-serif" dy="1.5625" font-size="25" fill="#FFFFFF"/><text text-anchor="middle" pointer-events="none" x="0" y="-5" font-size="10px" fill="#FFFFFF" font-family="sans-serif"> The</text><text text-anchor="middle" pointer-events="none" x="0" y="5" font-size="10px" fill="#FFFFFF" font-family="sans-serif"> Matrix</text><text text-anchor="middle" pointer-events="none" x="0" y="15" font-size="10px" fill="#FFFFFF" font-family="sans-serif"> Revol…</text></g><g class="node" transform="translate(85.41881195197617,-24.145247348323455)"><circle class="outline" cx="0" cy="0" r="25" fill="#F79767" stroke="#f36924" stroke-width="2px"/><text text-anchor="middle" pointer-events="none" font-family="sans-serif" dy="1.5625" font-size="25" fill="#FFFFFF"/><text text-anchor="middle" pointer-events="none" font-family="sans-serif" dy="1.5625" font-size="25" fill="#FFFFFF"/><text text-anchor="middle" pointer-events="none" x="0" y="0" font-size="10px" fill="#FFFFFF" font-family="sans-serif"> Cloud</text><text text-anchor="middle" pointer-events="none" x="0" y="10" font-size="10px" fill="#FFFFFF" font-family="sans-serif"> Atlas</text></g><g class="node" transform="translate(172.69706139455178,103.48486107170808)"><circle class="outline" cx="0" cy="0" r="25" fill="#F79767" stroke="#f36924" stroke-width="2px"/><text text-anchor="middle" pointer-events="none" font-family="sans-serif" dy="1.5625" font-size="25" fill="#FFFFFF"/><text text-anchor="middle" pointer-events="none" font-family="sans-serif" dy="1.5625" font-size="25" fill="#FFFFFF"/><text text-anchor="middle" pointer-events="none" x="0" y="0" font-size="10px" fill="#FFFFFF" font-family="sans-serif"> V for</text><text text-anchor="middle" pointer-events="none" x="0" y="10" font-size="10px" fill="#FFFFFF" font-family="sans-serif"> Vendetta</text></g><g class="node" transform="translate(-156.4850910201538,161.2819849980789)"><circle class="outline" cx="0" cy="0" r="25" fill="#F79767" stroke="#f36924" stroke-width="2px"/><text text-anchor="middle" pointer-events="none" font-family="sans-serif" dy="1.5625" font-size="25" fill="#FFFFFF"/><text text-anchor="middle" pointer-events="none" font-family="sans-serif" dy="1.5625" font-size="25" fill="#FFFFFF"/><text text-anchor="middle" pointer-events="none" x="0" y="0" font-size="10px" fill="#FFFFFF" font-family="sans-serif"> Speed</text><text text-anchor="middle" pointer-events="none" x="0" y="10" font-size="10px" fill="#FFFFFF" font-family="sans-serif"> Racer</text></g><g class="node" transform="translate(180.54682638043857,44.26546428156461)"><circle class="outline" cx="0" cy="0" r="25" fill="#F79767" stroke="#f36924" stroke-width="2px"/><text text-anchor="middle" pointer-events="none" font-family="sans-serif" dy="1.5625" font-size="25" fill="#FFFFFF"/><text text-anchor="middle" pointer-events="none" font-family="sans-serif" dy="1.5625" font-size="25" fill="#FFFFFF"/><text text-anchor="middle" pointer-events="none" x="0" y="0" font-size="10px" fill="#FFFFFF" font-family="sans-serif"> Ninja</text><text text-anchor="middle" pointer-events="none" x="0" y="10" font-size="10px" fill="#FFFFFF" font-family="sans-serif"> Assassin</text></g></g></svg>